<mxfile host="app.diagrams.net" modified="2023-09-01T23:10:40.936Z" agent="Mozilla/5.0 (Windows NT 10.0; Win64; x64) AppleWebKit/537.36 (KHTML, like Gecko) Chrome/116.0.0.0 Safari/537.36" version="21.1.1" etag="2xU13apEYhlaCYaaRbqe" type="github">
  <diagram name="Page-1" id="tCBG3q_dd0VP5cOUPXp3">
    <mxGraphModel>
      <root>
        <mxCell id="0" />
        <mxCell id="1" parent="0" />
      </root>
    </mxGraphModel>
  </diagram>
</mxfile>
